<svg width="359" height="369" viewBox="0 0 359 369" fill="none" xmlns="http://www.w3.org/2000/svg">
<rect y="0.323425" width="359" height="368.677" fill="#1E2221"/>
<path d="M119.6 107.88H167.6V273H119.6V107.88ZM177.68 184.92H183.44C188.56 184.92 192.32 184.76 194.72 184.44C197.28 183.96 199.28 183 200.72 181.56C202.16 180.28 203.04 178.44 203.36 176.04C203.84 173.48 204.08 169.72 204.08 164.76C204.08 159.8 203.84 156.12 203.36 153.72C203.04 151.16 202.16 149.16 200.72 147.72C199.28 146.44 197.28 145.64 194.72 145.32C192.16 144.84 188.4 144.6 183.44 144.6H177.68V107.88H197.6C209.44 107.88 219.04 109.08 226.4 111.48C233.92 113.72 239.6 117.24 243.44 122.04C247.12 126.52 249.6 132.2 250.88 139.08C252.16 145.8 252.8 154.36 252.8 164.76C252.8 174.68 252.16 182.92 250.88 189.48C249.76 196.04 247.44 201.56 243.92 206.04C239.92 211.16 234.16 215.08 226.64 217.8C219.28 220.36 209.6 221.64 197.6 221.64H177.68V184.92Z" fill="#C6A770"/>
</svg>
